<mxfile host="app.diagrams.net" agent="Mozilla/5.0 (Macintosh; Intel Mac OS X 10.15; rv:143.0) Gecko/20100101 Firefox/143.0" version="28.2.7">
  <diagram name="Page-1" id="zcTfqJIGsJ-_f5P4ek4f">
    <mxGraphModel grid="1" page="1" gridSize="10" guides="1" tooltips="1" connect="1" arrows="1" fold="1" pageScale="1" pageWidth="850" pageHeight="1100" math="0" shadow="0">
      <root>
        <mxCell id="0" />
        <mxCell id="1" parent="0" />
        <mxCell id="xCqx_qom46RemQlhAT4U-12" value="" style="ellipse;shape=cloud;whiteSpace=wrap;html=1;" vertex="1" parent="1">
          <mxGeometry x="270" y="200" width="680" height="300" as="geometry" />
        </mxCell>
        <mxCell id="xCqx_qom46RemQlhAT4U-1" value="S3" style="outlineConnect=0;dashed=0;verticalLabelPosition=bottom;verticalAlign=top;align=center;html=1;shape=mxgraph.aws3.s3;fillColor=#E05243;gradientColor=none;" vertex="1" parent="1">
          <mxGeometry x="390" y="310" width="76.5" height="93" as="geometry" />
        </mxCell>
        <mxCell id="xCqx_qom46RemQlhAT4U-11" style="edgeStyle=orthogonalEdgeStyle;rounded=0;orthogonalLoop=1;jettySize=auto;html=1;flowAnimation=1;" edge="1" parent="1" source="xCqx_qom46RemQlhAT4U-2" target="xCqx_qom46RemQlhAT4U-10">
          <mxGeometry relative="1" as="geometry" />
        </mxCell>
        <mxCell id="xCqx_qom46RemQlhAT4U-2" value="&lt;div&gt;Lambda&lt;/div&gt;" style="outlineConnect=0;dashed=0;verticalLabelPosition=bottom;verticalAlign=top;align=center;html=1;shape=mxgraph.aws3.lambda;fillColor=#F58534;gradientColor=none;" vertex="1" parent="1">
          <mxGeometry x="580" y="310" width="76.5" height="93" as="geometry" />
        </mxCell>
        <mxCell id="xCqx_qom46RemQlhAT4U-3" value="Actor" style="shape=umlActor;verticalLabelPosition=bottom;verticalAlign=top;html=1;outlineConnect=0;" vertex="1" parent="1">
          <mxGeometry x="120" y="326.5" width="30" height="60" as="geometry" />
        </mxCell>
        <mxCell id="xCqx_qom46RemQlhAT4U-4" value="File" style="whiteSpace=wrap;html=1;shape=mxgraph.basic.document" vertex="1" parent="1">
          <mxGeometry x="210" y="319.75" width="70" height="73.5" as="geometry" />
        </mxCell>
        <mxCell id="xCqx_qom46RemQlhAT4U-5" style="edgeStyle=orthogonalEdgeStyle;rounded=0;orthogonalLoop=1;jettySize=auto;html=1;entryX=0;entryY=0.5;entryDx=0;entryDy=0;entryPerimeter=0;flowAnimation=1;" edge="1" parent="1" source="xCqx_qom46RemQlhAT4U-3" target="xCqx_qom46RemQlhAT4U-4">
          <mxGeometry relative="1" as="geometry" />
        </mxCell>
        <mxCell id="xCqx_qom46RemQlhAT4U-6" style="edgeStyle=orthogonalEdgeStyle;rounded=0;orthogonalLoop=1;jettySize=auto;html=1;entryX=0;entryY=0.5;entryDx=0;entryDy=0;entryPerimeter=0;flowAnimation=1;" edge="1" parent="1" source="xCqx_qom46RemQlhAT4U-4" target="xCqx_qom46RemQlhAT4U-1">
          <mxGeometry relative="1" as="geometry" />
        </mxCell>
        <mxCell id="xCqx_qom46RemQlhAT4U-8" value="AWS&lt;br&gt;Transfer file" style="edgeLabel;html=1;align=center;verticalAlign=middle;resizable=0;points=[];" connectable="0" vertex="1" parent="xCqx_qom46RemQlhAT4U-6">
          <mxGeometry x="-0.1644" y="2" relative="1" as="geometry">
            <mxPoint x="4" y="23" as="offset" />
          </mxGeometry>
        </mxCell>
        <mxCell id="xCqx_qom46RemQlhAT4U-7" style="edgeStyle=orthogonalEdgeStyle;rounded=0;orthogonalLoop=1;jettySize=auto;html=1;entryX=0;entryY=0.5;entryDx=0;entryDy=0;entryPerimeter=0;flowAnimation=1;" edge="1" parent="1" source="xCqx_qom46RemQlhAT4U-1" target="xCqx_qom46RemQlhAT4U-2">
          <mxGeometry relative="1" as="geometry" />
        </mxCell>
        <mxCell id="xCqx_qom46RemQlhAT4U-9" value="Trigger" style="edgeLabel;html=1;align=center;verticalAlign=middle;resizable=0;points=[];" connectable="0" vertex="1" parent="xCqx_qom46RemQlhAT4U-7">
          <mxGeometry x="-0.0749" y="-2" relative="1" as="geometry">
            <mxPoint x="1" y="12" as="offset" />
          </mxGeometry>
        </mxCell>
        <mxCell id="xCqx_qom46RemQlhAT4U-10" value="Amazon DynamoDB" style="sketch=0;outlineConnect=0;fontColor=#232F3E;gradientColor=none;strokeColor=#ffffff;fillColor=#232F3E;dashed=0;verticalLabelPosition=middle;verticalAlign=bottom;align=center;html=1;whiteSpace=wrap;fontSize=10;fontStyle=1;spacing=3;shape=mxgraph.aws4.productIcon;prIcon=mxgraph.aws4.dynamodb;" vertex="1" parent="1">
          <mxGeometry x="740" y="301.5" width="80" height="110" as="geometry" />
        </mxCell>
        <mxCell id="xCqx_qom46RemQlhAT4U-13" value="AWS" style="text;html=1;whiteSpace=wrap;strokeColor=none;fillColor=none;align=center;verticalAlign=middle;rounded=0;" vertex="1" parent="1">
          <mxGeometry x="520" y="240" width="60" height="30" as="geometry" />
        </mxCell>
      </root>
    </mxGraphModel>
  </diagram>
</mxfile>
